<?xml version="1.0" encoding="UTF-8" standalone="no"?>
<!-- Created with Inkscape (http://www.inkscape.org/) -->

<svg
   width="210mm"
   height="297mm"
   viewBox="0 0 210 297"
   version="1.1"
   id="svg1"
   inkscape:version="1.4 (86a8ad7, 2024-10-11)"
   sodipodi:docname="ENERTREE_lighting_roots_level._circlesvgggood._green yellowsvg.svg"
   inkscape:export-filename="ENERTREE_0.png"
   inkscape:export-xdpi="96"
   inkscape:export-ydpi="96"
   xmlns:inkscape="http://www.inkscape.org/namespaces/inkscape"
   xmlns:sodipodi="http://sodipodi.sourceforge.net/DTD/sodipodi-0.dtd"
   xmlns="http://www.w3.org/2000/svg"
   xmlns:svg="http://www.w3.org/2000/svg">
  <sodipodi:namedview
     id="namedview1"
     pagecolor="#ffffff"
     bordercolor="#000000"
     borderopacity="0.25"
     inkscape:showpageshadow="2"
     inkscape:pageopacity="0.0"
     inkscape:pagecheckerboard="0"
     inkscape:deskcolor="#d1d1d1"
     inkscape:document-units="mm"
     showgrid="false"
     inkscape:zoom="0.9411127"
     inkscape:cx="216.2334"
     inkscape:cy="600.88446"
     inkscape:window-width="1920"
     inkscape:window-height="986"
     inkscape:window-x="-11"
     inkscape:window-y="1609"
     inkscape:window-maximized="1"
     inkscape:current-layer="svg1">
    <inkscape:grid
       id="grid1"
       units="mm"
       originx="0"
       originy="0"
       spacingx="0.99999998"
       spacingy="1"
       empcolor="#0099e5"
       empopacity="0.30196078"
       color="#0099e5"
       opacity="0.14901961"
       empspacing="5"
       enabled="true"
       visible="false" />
  </sodipodi:namedview>
  <defs
     id="defs1">
    <inkscape:path-effect
       effect="bspline"
       id="path-effect70"
       is_visible="true"
       lpeversion="1.3"
       weight="33.333333"
       steps="2"
       helper_size="0"
       apply_no_weight="true"
       apply_with_weight="true"
       only_selected="false"
       uniform="false" />
    <linearGradient
       id="swatch49"
       inkscape:swatch="solid">
      <stop
         style="stop-color:#000000;stop-opacity:1;"
         offset="0"
         id="stop49" />
    </linearGradient>
    <linearGradient
       id="linearGradient38"
       inkscape:swatch="gradient">
      <stop
         style="stop-color:#000000;stop-opacity:1;"
         offset="0"
         id="stop38" />
      <stop
         style="stop-color:#000000;stop-opacity:0;"
         offset="1"
         id="stop39" />
    </linearGradient>
    <linearGradient
       id="swatch32"
       inkscape:swatch="solid">
      <stop
         style="stop-color:#ffd600;stop-opacity:1;"
         offset="0"
         id="stop32" />
    </linearGradient>
    <inkscape:path-effect
       effect="bspline"
       id="path-effect10"
       is_visible="true"
       lpeversion="1.3"
       weight="33.333333"
       steps="2"
       helper_size="0"
       apply_no_weight="true"
       apply_with_weight="true"
       only_selected="false"
       uniform="false" />
  </defs>
  <path
     id="rect77"
     style="fill:#005900;fill-opacity:1;stroke:#ffd600;stroke-width:0.05;stroke-dasharray:none;stroke-opacity:1"
     d="M 29.302604 222.21848 C 27.975764 222.21848 27.208474 222.3512 26.986983 222.61949 C 26.749005 222.90775 26.66058 226.94291 26.67124 236.95194 C 26.679521 244.61402 26.760725 251.07904 26.852108 251.31851 C 26.98286 251.66106 27.596911 251.75363 29.731002 251.75363 C 32.188156 251.75363 32.461302 251.69884 32.628499 251.16917 C 32.730146 250.84753 32.737146 246.77703 32.644002 242.12372 C 32.550859 237.47039 32.583733 233.59556 32.716866 233.51288 C 32.850024 233.43015 36.026288 237.46752 39.77535 242.48494 L 46.591471 251.60738 L 49.282263 251.69161 L 51.973055 251.77585 L 51.973055 237.14315 L 51.973055 222.51097 L 49.21405 222.51097 L 46.454529 222.51097 L 46.377531 231.64943 C 46.320757 238.3991 46.211429 240.78789 45.959469 240.78789 C 45.771918 240.78789 42.724243 236.90566 39.186755 232.16102 C 35.649267 227.41636 32.424964 223.2382 32.021301 222.87632 C 31.412337 222.33037 30.949161 222.21848 29.302604 222.21848 z M 174.30047 222.2438 C 170.06555 222.20329 165.84205 222.28249 165.55889 222.51872 C 165.19415 222.82306 165.13204 224.95234 165.13204 237.11938 C 165.13204 244.95389 165.22102 251.45343 165.32996 251.56294 C 165.43892 251.6726 169.52953 251.7274 174.42036 251.6849 L 183.31284 251.60738 L 183.31284 249.26799 L 183.31284 246.9286 L 177.36282 246.84953 C 173.0484 246.79197 171.35055 246.67131 171.18593 246.4108 C 170.79578 245.79343 170.9049 240.16525 171.31357 239.8267 C 171.52825 239.64887 173.52416 239.5244 176.18615 239.5244 C 178.66606 239.52383 180.8582 239.51169 181.0582 239.49753 C 181.31467 239.47954 181.422 238.82259 181.422 237.26924 C 181.422 235.7701 181.30572 235.02625 181.0582 234.93966 C 180.8582 234.8697 178.63974 234.7755 176.12775 234.72986 C 173.34109 234.6793 171.43738 234.52307 171.24484 234.32937 C 171.04574 234.12905 170.95992 232.83405 171.0123 230.82002 L 171.09498 227.62848 L 177.05844 227.48224 L 183.0219 227.33599 L 183.28545 225.1723 C 183.50513 223.36875 183.47634 222.95496 183.1113 222.68667 C 182.78191 222.44457 178.53539 222.28431 174.30047 222.2438 z M 62.178634 222.24845 C 61.031864 222.25011 60.215314 222.27732 60.006156 222.3301 L 59.245479 222.52182 L 59.245479 236.94316 C 59.245479 244.87471 59.333103 251.45158 59.439783 251.55881 C 59.546438 251.66601 63.67482 251.75363 68.614417 251.75363 L 77.59578 251.75363 L 77.511031 249.34137 L 77.426799 246.9286 L 71.467989 246.78235 L 65.50918 246.63611 L 65.302991 245.46667 C 65.189692 244.82333 65.089686 243.33877 65.080265 242.16765 C 65.066431 240.40844 65.150925 240.0043 65.567057 239.84376 C 65.844082 239.7369 68.167699 239.6429 70.730566 239.63395 L 75.39023 239.61793 L 75.473946 237.25012 L 75.558179 234.8823 L 72.710807 234.69265 C 71.144799 234.58843 68.848713 234.50197 67.608793 234.50197 C 66.368849 234.50112 65.350593 234.40143 65.345882 234.28079 C 65.176454 229.96655 65.190766 227.85709 65.391357 227.60058 C 65.563389 227.38061 67.227063 227.32403 70.704728 227.42023 C 73.489458 227.49722 76.10842 227.47455 76.524528 227.36958 C 77.260031 227.18392 77.281071 227.11435 77.281071 224.84467 L 77.281071 222.51097 L 74.590279 222.50735 C 73.110374 222.50536 69.394951 222.42129 66.333419 222.3208 C 64.802653 222.27055 63.325404 222.24679 62.178634 222.24845 z M 10.554395 222.28721 L 1.793689 222.36472 L 1.7177246 236.69356 C 1.6761237 244.57456 1.7058293 251.18906 1.7833537 251.39241 C 1.893653 251.68184 3.8715201 251.74544 10.876855 251.6849 L 19.829281 251.60738 L 19.913513 249.20133 L 19.998263 246.79476 L 13.95057 246.71517 L 7.90236 246.63611 L 7.90236 243.12728 L 7.90236 239.61793 L 12.510347 239.56626 C 15.044605 239.53771 17.302522 239.44299 17.528129 239.35593 C 17.826922 239.24068 17.93844 238.64358 17.93844 237.15865 C 17.93844 236.03727 17.825553 235.05008 17.687809 234.96447 C 17.55009 234.87891 15.25574 234.71882 12.588896 234.60894 L 7.740096 234.40895 L 7.821228 230.87273 L 7.90236 227.33599 L 13.429671 227.27708 C 16.469535 227.24481 19.103224 227.21217 19.282544 227.20422 C 19.769507 227.18273 20.105035 223.16719 19.664433 222.63344 C 19.370847 222.27772 17.913139 222.22224 10.554395 222.28721 z M 199.13151 222.28721 L 190.58527 222.36472 L 190.50982 237.05478 L 190.43437 251.74536 L 199.09121 251.82236 L 199.09121 251.82287 C 203.8525 251.86545 207.9824 251.79406 208.26894 251.66423 C 208.71569 251.46182 208.77825 251.10785 208.70561 249.17859 L 208.62086 246.9286 L 202.43932 246.85005 L 196.25779 246.77098 L 196.25779 243.26784 L 196.25779 239.76418 L 199.53046 239.74506 C 201.33035 239.73447 203.58829 239.70129 204.54824 239.67168 L 206.29387 239.61793 L 206.3781 237.20568 L 206.46285 234.7929 L 201.82024 234.7929 C 199.26694 234.7929 196.97076 234.71327 196.71771 234.61565 C 196.33381 234.46756 196.25779 233.86167 196.25779 230.96006 L 196.25779 227.48224 L 202.01764 227.48224 C 206.10958 227.48224 207.87832 227.38067 208.12631 227.13136 C 208.6255 226.62951 208.58593 222.96683 208.0767 222.54197 C 207.79383 222.30568 205.19448 222.23218 199.13151 222.28721 z M 147.05252 222.32958 C 145.61816 222.26694 143.9486 222.28407 141.97893 222.36524 L 137.00714 222.56988 L 136.81542 230.48361 C 136.56492 240.83854 136.57145 251.31091 136.82834 251.56914 C 136.94057 251.68178 138.21662 251.73693 139.66434 251.6911 L 142.29622 251.60738 L 142.44195 246.19789 L 142.58716 240.78789 L 144.18448 240.78789 L 145.78128 240.78789 L 149.03328 246.19789 L 152.28476 251.60738 L 155.50834 251.69006 C 158.18366 251.75871 158.73191 251.70006 158.73191 251.34435 C 158.73191 250.9743 155.14018 245.08994 152.81031 241.64313 C 151.85572 240.23092 151.85134 239.94503 152.77982 239.51975 C 154.13096 238.90091 156.32742 236.55997 157.01884 235.00168 C 158.39544 231.89918 157.73049 228.08157 155.35279 225.43585 C 153.54062 223.41944 151.3556 222.51749 147.05252 222.32958 z M 128.29708 222.33837 C 126.57456 222.31124 123.97111 222.32686 120.30894 222.38229 C 114.64298 222.46803 109.84341 222.5321 109.64344 222.5244 C 109.38168 222.51459 109.27963 223.16646 109.27963 224.85036 C 109.27963 226.13703 109.37823 227.19406 109.49823 227.19854 C 109.61822 227.20333 111.28713 227.23936 113.20704 227.27863 C 115.12696 227.31786 116.86108 227.45308 117.06107 227.57939 C 117.34219 227.75688 117.42487 230.48192 117.42487 239.58641 C 117.42487 246.06399 117.51674 251.4563 117.629 251.56914 C 117.7412 251.68181 119.0173 251.73691 120.465 251.6911 L 123.0974 251.6079 L 123.17336 239.58693 L 123.24932 227.56595 L 125.51689 227.37579 C 126.76424 227.27104 128.3975 227.27005 129.14612 227.3732 C 131.07422 227.63888 131.38785 227.28564 131.38785 224.85036 C 131.38785 223.55882 131.25336 222.76278 130.99924 222.55076 C 130.86106 222.43548 130.0196 222.36549 128.29708 222.33837 z M 84.408285 222.65721 L 84.254806 236.83981 C 84.170562 244.64038 84.152129 251.18721 84.213464 251.38827 L 84.213464 251.38879 C 84.292377 251.64732 85.124736 251.75414 87.057218 251.75414 C 88.560032 251.75414 89.814838 251.72148 89.845679 251.68128 C 89.87652 251.64106 89.975118 249.17336 90.06427 246.19789 L 90.226017 240.78789 L 91.534981 240.71192 C 92.254939 240.67001 92.996507 240.73686 93.182943 240.86023 C 93.369353 240.98361 94.841126 243.30578 96.453544 246.02116 C 98.065938 248.73651 99.533151 251.13733 99.71381 251.35623 C 100.19901 251.94355 106.37077 251.92808 106.37077 251.33918 C 106.37077 251.11121 104.91136 248.64403 103.12756 245.85631 C 101.34375 243.06859 99.828178 240.57757 99.759802 240.32073 C 99.67779 240.01262 99.941723 239.72615 100.53547 239.47892 C 101.84914 238.93191 104.19506 236.21226 104.73986 234.6048 C 104.99685 233.84669 105.20753 232.4062 105.20753 231.40345 C 105.20753 227.84603 102.64393 224.47124 98.953133 223.16984 C 97.732675 222.73949 96.445706 222.65721 90.953621 222.65721 L 84.408285 222.65721 z M 90.226017 227.33599 L 93.335905 227.39284 C 97.877715 227.47554 99.098344 228.35014 99.098344 231.5223 C 99.098344 233.20807 98.363518 234.35055 96.877291 234.9748 C 95.586201 235.517 90.412592 235.53347 90.207414 234.99599 C 90.127212 234.78604 90.098681 232.97661 90.143852 230.97505 L 90.226017 227.33599 z M 142.81764 227.48327 L 145.90272 227.48327 C 148.48332 227.48419 149.14446 227.58073 149.95002 228.07445 C 152.44835 229.60569 152.20544 233.85047 149.55573 234.96344 L 149.55573 234.96447 C 148.41379 235.44413 142.8693 235.54495 142.59026 235.09108 C 142.4929 234.93277 142.50432 233.15653 142.61558 231.14351 L 142.81764 227.48327 z " />
  <ellipse
     style="fill:#005900;fill-opacity:1;stroke:#005900;stroke-width:0.750761;stroke-dasharray:none;stroke-opacity:1"
     id="path71"
     ry="96.498665"
     rx="96.358101"
     cy="112.40141"
     cx="104.63155" />
  <g
     inkscape:label="Layer 1"
     inkscape:groupmode="layer"
     id="layer1">
    <g
       inkscape:groupmode="layer"
       id="layer2"
       inkscape:label="Layer 2">
      <path
         style="fill:#ffd600;fill-opacity:1;stroke-width:0.264583"
         d="m 53.732689,161.03158 c 25.407922,0.29286 75.942611,-0.63136 101.153741,-0.85619 25.21113,-0.22484 25.0987,0.24968 27.61223,-4.86984 2.51353,-5.11951 7.65272,-15.83245 9.35395,-30.71691 1.70122,-14.88446 -0.0357,-33.938655 -8.0577,-50.093379 C 175.77293,58.340537 161.46688,45.087221 148.81796,37.359043 136.16904,29.630865 125.17875,27.428741 114.6874,26.356705 104.19604,25.284669 94.204895,25.342851 83.402374,28.010372 72.599854,30.677894 60.987264,35.954435 51.586667,42.875608 42.186071,49.796781 34.9986,58.361753 29.029678,68.83134 23.060757,79.300928 18.311103,91.67387 16.979342,103.94747 c -1.33176,12.27359 0.754529,24.44636 2.840315,32.81777 2.085787,8.3714 4.170856,12.9405 5.494559,15.7991 1.323702,2.85861 1.885969,4.00657 2.307686,5.33553 0.421718,1.32897 0.702865,2.83886 26.110787,3.13171 z"
         id="path10"
         sodipodi:nodetypes="ccccccccccccccc"
         inkscape:original-d="m 28.60592,162.24865 c 50.534691,-0.92421 101.06938,-1.84843 151.60407,-2.77264 -0.11243,0.47454 -0.22486,0.94906 -0.33729,1.4236 5.1395,-10.71357 10.27869,-21.42651 15.41818,-32.14009 -1.73705,-19.05534 -3.474,-38.109535 -5.21105,-57.164877 -14.3069,-13.254107 -28.61295,-26.507419 -42.91984,-39.761521 -10.99095,-2.202257 -21.98124,-4.40438 -32.97219,-6.606638 -9.99176,0.05819 -19.982905,0.116367 -29.974658,0.174552 -11.613288,5.276858 -23.225878,10.553399 -34.839167,15.830257 -7.187904,8.565488 -14.375375,17.13046 -21.563279,25.695948 -4.749939,12.373687 -9.499592,24.74663 -14.24953,37.120309 2.086416,12.17351 4.172705,24.34628 6.259122,36.5198 2.085157,4.56929 4.170225,9.13839 6.25534,13.70759 0.562288,1.14801 1.124555,2.29597 1.686833,3.44395 0.281159,1.50995 0.562306,3.01984 0.843459,4.52976 z"
         inkscape:path-effect="#path-effect10" />
    </g>
    <g
       id="g319"
       transform="matrix(0.26458333,0,0,0.26458333,-942.65253,1317.8125)">
      <g
         id="g1"
         transform="matrix(0.93701833,0,0,0.93898667,251.54753,-240.17199)">
        <g
           id="g10" />
        <path
           style="fill:#005900;fill-opacity:1;stroke:none"
           d="m 3948.2333,-4856.2569 v 130 c -19.8364,-19.8362 -37.9933,-36.9101 -57.8405,-56.7573 -7.6653,-7.6652 -17.0974,-14.4873 -23.8087,-23 -3.4797,-4.4137 -0.6323,-8.0869 -0.2886,-13 0.4748,-6.7859 -2.1091,-13.9815 -7.0879,-18.6713 -17.3566,-16.3492 -44.8583,4.2008 -36.3356,25.6713 3.2081,8.0819 10.7361,13.6104 19.5208,13.8703 3.2535,0.096 6.8325,-1.4938 10,-0.4035 5.9679,2.0542 12.4488,10.2207 17,14.5725 19.398,18.5487 35.862,35.7395 54.8405,54.718 6.8585,6.8585 20.0013,15.7911 23.3966,25 2.3739,6.4385 0.6034,16.1855 0.6034,23 v 52 c -16.9804,-16.9802 -33.6444,-34.365 -51,-50.9607 -10.7609,-10.2896 -23.7766,-20.0758 -32.7477,-32.0393 -3.068,-4.0913 -0.5324,-7.4945 -0.3858,-12 0.1712,-5.2627 -2.5051,-10.9951 -6.1952,-14.6706 -14.7559,-14.6972 -38.6602,3.0686 -31.0579,21.6698 5.6608,13.8509 21.9641,8.644 31.3866,18.0016 21.0718,20.9268 42.0005,41.9997 63,62.9992 7.6197,7.6197 22.6344,17.796 26.3966,28 4.4477,12.0633 0.6034,32.1271 0.6034,45 -42.0003,-42 -84.9666,-83.1152 -126.0394,-126 -11.0721,-11.5606 -12.3605,-9.6582 -23.6795,-20.9772 -4.4765,-4.4765 -12.5739,-10.0231 -14.9267,-16 -2.2304,-5.6661 2.0833,-13.4853 -0.1821,-20 -4.7673,-13.7096 -21.9455,-19.2061 -33.8874,-11.1466 -11.9527,8.0668 -13.7267,27.1846 -1.9105,36.3572 8.5575,6.643 19.8514,0.3628 26.9067,5.9777 21.8589,17.3961 30.3563,27.7355 49.7582,47.7927 31.1151,32.1662 63.3151,63.3509 94.9607,94.9962 -12.599,0 -32.1912,3.7505 -44,-0.6034 -5.4719,-2.0175 -9.9791,-8.3757 -14,-12.3966 -9.7137,-9.7137 -21.4195,-19.0862 -29.7585,-30 -6.9923,-9.1513 2.7675,-20.9242 -11.2423,-28.5826 -16.5319,-9.0371 -33.4869,11.2025 -23.6559,26.5425 6.1858,9.652 14.9867,4.5106 22.6567,9.5277 13.3135,8.7088 24.7442,24.2568 36,35.5124 -12.3249,0 -31.4457,3.6567 -43,-0.6034 -8.876,-3.2726 -17.3959,-15.7925 -24,-22.3966 -18.7828,-18.7827 -23.7791,-16.9604 -41.5047,-36.7412 -4.2512,-4.744 -1.0406,-9.3004 -1.1204,-15.0393 -0.1432,-10.3119 -6.7846,-19.1215 -16.9814,-21.4707 -25.2662,-5.821 -36.9347,31.5152 -14,42.4205 6.7038,3.1876 13.1455,1.4642 20,0.05 l 20,22 36.6065,31.7805 -120.0347,-1.3708 c -1.6506,-31.819 -51.8746,-21.4816 -43.2115,9 1.0188,3.5847 2.8654,7.1711 5.4244,9.8951 6.9358,7.3827 20.2697,9.0682 28.7863,3.402 3.6298,-2.415 6.0039,-7.0763 10.0903,-8.6937 3.9871,-1.5781 9.69,-0.6398 13.9105,-0.6034 l 159.0347,1.3708 c 19.7334,0.1701 41.222,2.1809 61,6.4892 44.5719,9.7091 32.8967,125.4365 9.463,152.596 -11.8952,13.7864 85.2778,2.4892 82.498,-0.5909 -26.315,-29.1572 -23.6507,-135.3956 8.2546,-149.779 17.5986,-7.9337 38.9967,-8.7153 57.7844,-8.7153 h 110 c 4.2205,0 60.9863,-1.6601 64.9734,-0.082 4.0862,1.6174 6.4605,6.2787 10.0903,8.6937 8.698,5.7868 21.4725,3.5755 28.6704,-3.6258 28.4735,-28.4868 -35.5766,-59.0461 -37.6712,-18.6713 l -122.0629,0.6854 c 23.184,-23.1841 32.1476,-35.9324 57.7278,-56.4118 8.7979,-7.0436 20.6557,1.0479 29.6057,-10.2029 14.7995,-18.6043 -8.1859,-44.4724 -28.6019,-33.0795 -7.2453,4.0431 -11.2349,11.8938 -10.9606,20.0949 0.1527,4.5665 2.665,8.9139 -0.3202,13 -15.4948,21.2087 -25.8601,25.0085 -44.4508,43.5993 -6.6042,6.6041 -15.124,19.124 -24,22.3966 -11.2998,4.1662 -29.9492,0.6034 -42,0.6034 11.366,-11.366 22.721,-26.5523 36,-35.5926 8.1226,-5.5299 17.3749,0.5153 23.7716,-10.4082 9.2134,-15.7335 -8.746,-34.7821 -24.757,-25.4661 -12.9046,7.5086 -3.4215,18.2137 -9.517,26.7524 -8.3051,11.6341 -21.3822,21.5991 -31.4976,31.7145 -4.021,4.0209 -8.5281,10.3792 -14,12.3966 -11.8089,4.3539 -31.401,0.6034 -44,0.6034 l 106,-106 c 15.8252,-15.8252 22.2558,-26.4362 41.0616,-38.5139 6.4781,-4.1604 15.5854,1.0085 22.9992,-4.1435 13.1099,-9.1103 13.0882,-28.5336 0,-37.696 -11.4621,-8.0222 -29.1526,-2.0572 -33.196,11.348 -1.924,6.3787 2.3116,14.4495 0.1266,20 -2.3529,5.977 -10.2703,11.711 -14.9267,16 l -26.0616,24.0054 c -43.1807,39.7738 -83.5015,82.5015 -125,124 0,-12.6981 -4.1764,-34.1 0.6034,-45.8303 3.6677,-9.0011 17.5199,-18.293 24.3966,-25.1697 20.1674,-20.1674 40.8185,-39.8185 61,-60 3.6164,-3.6164 7.3614,-8.6529 12,-10.9722 9.4687,-4.7344 19.6193,-0.2865 23.6952,-14.0278 5.5415,-18.6827 -17.1531,-32.6013 -31.5903,-19.6597 -9.6016,8.6068 -0.4765,20.4325 -7.2068,27.7492 -18.423,20.0279 -38.6501,38.6698 -57.8981,57.9105 -7.7296,7.7266 -19.3166,14.9571 -24,25 h -1 v -55 c 0,-6.5721 -2.0227,-17.2563 1.6034,-23 7.4948,-11.8721 21.4727,-22.0762 31.3966,-32 19.9713,-19.9714 39.6925,-41.3827 61,-59.902 10.4597,-9.091 26.0944,1.8307 33.3866,-16.098 8.6988,-21.3873 -17.5826,-42.1943 -35.2925,-25.787 -5.1799,4.7988 -7.4807,11.8392 -7.0031,18.787 0.2511,3.6531 2.6679,7.9735 0.382,11.2855 -9.9021,14.3474 -26.6026,27.1586 -39.4769,38.885 -15.9535,14.5312 -30.7368,30.5702 -45.9961,45.8295 v -85 c 0,-13.4417 -2.0384,-28.7041 0.1481,-41.9568 0.7617,-4.6163 5.7234,-6.1526 8.7577,-9.1481 4.0656,-4.0135 6.3747,-9.2229 6.9167,-14.8951 1.2488,-13.0701 -8.9481,-24.5195 -21.8225,-25.4822 -26.1819,-1.9579 -33.75,39.4312 -8,45.4822 z"
           id="path318-9"
           sodipodi:nodetypes="ccssssssssssscsssssssscsssssssscsssssscssssssccccsssssssssssssssccssssssscsssssscssscsssscssssssssccssssssssscssssscc" />
      </g>
    </g>
    <g
       inkscape:groupmode="layer"
       id="layer3"
       inkscape:label="Layer 3">
      <path
         id="rect32"
         style="fill:#ffd600;fill-opacity:1;stroke:#005900;stroke-width:0;stroke-dasharray:none;stroke-opacity:1"
         d="m 31.487484,164.04425 60.139117,-0.55101 -0.0025,-0.002 3.278985,-2.55821 c 1.264551,-0.98659 -67.63872,-10.8302 -67.619063,-12.68953 -0.272167,3.46503 -2.84695,-5.11434 -0.410173,3.96866 z m 59.915711,-0.0456 c 0.04529,0.39354 -1.914995,1.34019 -3.784771,3.25363 l -2.607076,2.66806 -1.610754,-0.16382 c -0.885766,-0.0903 -4.490503,-0.24523 -8.010364,-0.34416 l -6.399609,-0.17984 -2.181779,1.13534 c -1.199955,0.62447 -2.87362,1.58126 -3.71967,2.12596 l -1.538407,0.99012 -5.804297,-0.54053 -5.804297,-0.54054 -1.238684,0.89039 c -1.558421,1.12041 -4.190587,2.44957 -6.556706,3.31091 -1.709305,0.62227 -2.552698,1.16478 -1.809708,1.16478 1.976488,0 7.055208,-1.20428 8.788611,-2.08411 1.308469,-0.6641 2.831803,-0.6904 5.889046,-0.10232 2.290255,0.44056 2.925812,0.81194 2.53938,1.4826 -0.370838,0.64356 -3.381786,2.92871 -6.890019,5.22914 -4.409321,2.89132 -4.504734,2.98736 -2.036051,2.0531 1.119951,-0.42386 3.148856,-1.17674 4.508768,-1.6738 1.762633,-0.64423 3.349984,-1.53938 5.527311,-3.1166 1.679927,-1.21694 4.690607,-3.31705 6.690548,-4.6669 l 3.635954,-2.45411 5.814115,0.19275 c 5.852138,0.19408 7.130831,0.32994 7.130831,0.75758 0,0.12789 -1.576464,1.88171 -3.503145,3.89743 -2.248307,2.35226 -3.837031,3.77308 -4.435905,3.96669 -0.513193,0.1659 -2.429728,0.56902 -4.258655,0.89606 l -3.325378,0.5948 -3.039091,3.22978 c -1.671399,1.77644 -4.154134,4.1057 -5.517493,5.17591 -1.363383,1.0702 -2.33626,1.99356 -2.161625,2.05207 0.529655,0.17749 8.222246,-3.91489 10.242269,-5.44876 1.737022,-1.31897 2.151114,-1.4883 5.090645,-2.08411 1.759931,-0.35669 3.461692,-0.78576 3.781681,-0.95343 0.777625,-0.40747 8.712111,-6.47774 10.179224,-7.78764 0.932202,-0.8323 1.179907,-0.94093 1.254704,-0.55036 0.05129,0.2677 -0.06852,0.7893 -0.266134,1.15962 -0.925285,1.73387 -3.88922,9.3921 -4.409033,11.39207 l -0.581877,2.23811 -4.830712,3.46439 c -4.464658,3.2018 -7.018694,5.37488 -7.018694,5.97121 0,0.13376 2.585012,-1.01538 5.744869,-2.55385 6.760615,-3.29206 6.763412,-3.29318 6.763412,-2.49235 0,1.16245 -0.852261,4.6071 -1.585433,6.40787 -1.2959,3.18289 -0.871678,3.18012 1.195276,-0.008 1.723635,-2.65883 2.819834,-5.47353 3.439583,-8.83201 0.917748,-4.97308 1.92803,-8.48624 3.40496,-11.84321 2.80263,-6.37028 3.581526,-7.67358 5.555734,-9.29607 0.994256,-0.8171 3.113875,-2.8103 4.710823,-4.42919 1.596924,-1.61884 3.069668,-2.94349 3.272668,-2.94349 0.28853,0 0.36897,1.63162 0.36897,7.47655 0,4.11191 -0.1179,7.6976 -0.26252,7.9685 -0.14458,0.2709 -1.773525,1.67685 -3.61993,3.12436 -1.84638,1.44754 -3.443085,2.82938 -3.548104,3.07061 -0.105043,0.24126 -0.170743,2.43462 -0.145727,4.87412 0.05154,5.01606 0.07697,4.93357 -3.156914,10.33891 -1.446089,2.41705 -1.749649,3.21014 -1.228348,3.21014 0.267951,0 4.824739,-5.16152 6.305041,-7.14168 0.842207,-1.12663 0.857527,-1.21437 0.904854,-5.06688 0.04116,-3.34897 0.126052,-4.00734 0.581877,-4.51394 0.616972,-0.68572 5.729251,-4.57178 6.308141,-4.79505 0.48513,-0.18715 3.38894,3.52293 3.38894,4.32997 0,0.31549 -0.72328,3.40826 -1.60714,6.87296 -0.90847,3.56112 -1.53004,6.56835 -1.42988,6.91793 0.20369,0.71103 2.09473,5.30213 2.54299,6.17378 h -0.001 c 0.53461,1.03962 0.55357,-0.0385 0.045,-2.54506 -0.26989,-1.3304 -0.48305,-2.88108 -0.47387,-3.44579 0.009,-0.5647 0.78419,-3.26333 1.72289,-5.99757 1.99617,-5.81437 2.09234,-5.89898 4.22765,-3.71967 l 1.39113,1.41956 0.45113,3.78168 c 0.26795,2.24421 0.64047,4.07902 0.91571,4.5129 1.50125,2.36624 4.31706,5.37546 3.76256,4.02094 -1.82077,-4.44787 -2.17449,-5.75675 -2.35386,-8.71058 -0.10291,-1.69476 -0.31257,-3.86597 -0.46561,-4.82502 -0.2914,-1.82562 -0.35522,-1.90913 -3.95221,-5.13871 -0.4673,-0.41959 -1.92949,-2.36801 -3.24941,-4.32997 l -2.39986,-3.56722 v -3.85765 c -7.2e-4,-2.12188 -0.0865,-5.33844 -0.19017,-7.14788 -0.15993,-2.78993 -0.12347,-3.28972 0.2403,-3.28972 0.40331,0 10.12192,7.50201 11.49232,8.87129 0.36568,0.36536 1.20872,2.36078 1.99678,4.72633 0.75015,2.25171 2.0011,5.70299 2.78019,7.6693 1.23994,3.1293 1.45629,3.99868 1.73168,6.97373 0.28929,3.12523 0.42705,3.64021 1.71204,6.39961 1.36189,2.92444 2.3316,4.28031 1.97507,2.76107 -1.60974,-6.85933 -1.58597,-7.91666 0.16278,-7.17837 2.75099,1.16148 9.57375,4.5134 10.89856,5.35419 2.44488,1.55156 1.84783,0.3851 -0.94516,-1.84639 -0.79996,-0.63917 -3.10005,-2.30622 -5.11132,-3.70469 -2.01124,-1.39844 -3.98248,-2.90352 -4.38009,-3.3445 -1.11199,-1.2333 -3.01297,-5.64581 -4.31395,-10.01334 -1.27183,-4.26944 -1.34596,-4.67878 -0.84698,-4.67878 0.41606,0 5.43706,3.61056 8.68733,6.24716 2.89481,2.34821 3.42796,2.6074 6.95461,3.38119 2.14738,0.47112 2.99977,0.82762 4.46795,1.86707 4.30328,3.04655 10.09742,6.15576 10.57558,5.6751 0.0773,-0.0777 -1.01485,-0.99377 -2.42673,-2.03553 -2.344,-1.72952 -7.64346,-6.97276 -7.64346,-7.56233 0,-0.49104 -1.79059,-1.15928 -4.94388,-1.84485 -1.76858,-0.38451 -3.52014,-0.89947 -3.89227,-1.14463 -0.3722,-0.24514 -2.03787,-1.65787 -3.70158,-3.13934 -1.66369,-1.48145 -3.38511,-2.96339 -3.82509,-3.29334 -1.47217,-1.10397 -1.07896,-1.26357 3.61011,-1.46761 2.42535,-0.10554 5.52304,-0.19224 6.88382,-0.19224 2.40355,0 2.54257,0.0387 4.87619,1.35547 1.32116,0.7455 4.212,2.69959 6.42441,4.34237 3.48265,2.58599 4.52591,3.18995 7.77214,4.50102 2.06219,0.83287 3.79373,1.46983 3.84783,1.41542 0.0943,-0.0948 -2.09088,-1.75016 -7.48947,-5.67407 -1.38054,-1.0034 -2.58452,-2.01981 -2.67581,-2.25878 -0.20468,-0.53633 -0.0108,-0.59379 4.06384,-1.20665 l 3.24114,-0.48782 1.8495,0.88573 c 2.08615,0.99858 6.01605,1.89234 7.70651,1.75287 1.08222,-0.0893 1.02056,-0.13381 -1.65003,-1.18804 -1.52607,-0.60245 -3.7516,-1.6962 -4.94543,-2.43086 l -2.17041,-1.33584 -6.17275,0.18397 -6.17275,0.18397 -1.82676,-1.02216 c -4.07255,-2.27904 -3.96503,-2.26248 -12.67365,-1.99006 l -7.7711,0.24288 -2.61638,-2.36317 c -1.43925,-1.29976 -2.86076,-2.58337 -3.15846,-2.85254 -0.29768,-0.26911 -0.46104,-0.61917 -0.36329,-0.77824 0.1163,-0.18914 -16.9926,-12.52394 8.48148,-10.13554 l 55.63394,-1.24891 -4.36703,10.5703 c -28.52455,0.12554 -58.52509,1.25653 -87.049645,0.44689 z"
         sodipodi:nodetypes="cccsccccccscccccccsscsssssssccssscccsssssssscccscssscsssssssscsssssssssccccscccccscsscccssscsssccssscssscsssscsssssssssccccssccccccccscccccc" />
    </g>
    <path
       style="fill:#ffb600;fill-opacity:1;stroke:#005900;stroke-width:0;stroke-dasharray:none;stroke-opacity:1"
       id="path69"
       sodipodi:type="arc"
       sodipodi:cx="-38.268074"
       sodipodi:cy="108.04518"
       sodipodi:rx="0.099397592"
       sodipodi:ry="0.19879518"
       sodipodi:start="6.1971239"
       sodipodi:end="6.0635918"
       sodipodi:arc-type="slice"
       d="m -38.169044,108.02809 a 0.09939759,0.19879518 0 0 1 -0.08719,0.21447 0.09939759,0.19879518 0 0 1 -0.110083,-0.16712 0.09939759,0.19879518 0 0 1 0.07984,-0.22562 0.09939759,0.19879518 0 0 1 0.115413,0.15206 l -0.09701,0.0433 z" />
    <path
       style="fill:#ffd600;fill-opacity:1;stroke:none;stroke-width:0.626532;stroke-dasharray:none;stroke-opacity:1"
       d="m 28.715618,153.36461 2.561249,2.73177 1.379134,2.08899 2.65976,1.84796 -3.730045,4.1557 -5.52986,-10.98506 z"
       id="path74"
       sodipodi:nodetypes="ccccccc" />
  </g>
  <g
     inkscape:groupmode="layer"
     id="layer6"
     inkscape:label="Layer 4" />
  <path
     style="fill:#ffd600;fill-opacity:1;stroke:none;stroke-width:0.979957;stroke-dasharray:none;stroke-opacity:1"
     d="M 28.205523,157.23994 24.216765,150.1 c 0,0 7.081284,-15.45507 7.155343,-9.60062 0.263963,20.86664 -0.979602,-1.37873 -0.979602,-1.37873 l -2.720951,0.0191 c 0,0 -4.953964,-0.0191 -4.834591,0.14303 0.119371,0.16219 5.967197,18.4224 5.967197,18.4224 l -2.679673,0.27456 z"
     id="path72"
     sodipodi:nodetypes="ccsccsccc" />
  <path
     style="fill:#005900;fill-opacity:1;stroke:none;stroke-width:0.7;stroke-dasharray:none;stroke-opacity:1"
     d="m 27.238338,155.74613 c 0.298711,0.38657 2.347102,4.04422 1.930592,3.86967 -0.647252,-0.27124 0.03841,0.5171 0.03841,0.5171 0,0 -0.214384,0.81555 -0.513094,0.51684 -0.298712,-0.29871 -2.204614,-1.10357 -2.424824,-0.96641 -3.109193,1.93656 -1.159697,-3.61967 -1.071841,-3.61967 0.08786,0 2.040753,-0.31753 2.040753,-0.31753 z"
     id="path75"
     sodipodi:nodetypes="cscssscc" />
  <path
     style="fill:#ffd600;fill-opacity:1;stroke:none;stroke-width:0.7;stroke-dasharray:none;stroke-opacity:1"
     d="m 178.52316,163.48223 2.45923,-4.14076 3.16355,-7.45622 -6.04449,4.28737 z"
     id="path76"
     sodipodi:nodetypes="ccccc" />
  <path
     style="fill:#ffd600;fill-opacity:1;stroke:none;stroke-width:0.7;stroke-dasharray:none;stroke-opacity:1"
     d="m 24.551205,150.63704 2.832831,6.56025 0.919428,1.8637 1.764306,3.75226 1.192772,1.29217 c 0,0 8.697288,-5.86446 8.498493,-6.26205 -0.198795,-0.39759 -4.373494,-9.44277 -5.069276,-9.34337 -0.695783,0.0994 -10.138554,2.13704 -10.138554,2.13704 z"
     id="path77"
     sodipodi:nodetypes="cccccssc" />
</svg>
