<?xml version="1.0" encoding="UTF-8" standalone="no"?>
<!-- Created with Inkscape (http://www.inkscape.org/) -->

<svg
   version="1.1"
   id="svg1"
   width="137.34393"
   height="136.81848"
   viewBox="0 0 137.34393 136.81848"
   xml:space="preserve"
   xmlns="http://www.w3.org/2000/svg"
   xmlns:svg="http://www.w3.org/2000/svg"><defs
     id="defs1"><linearGradient
       id="swatch49"><stop
         style="stop-color:#000000;stop-opacity:1;"
         offset="0"
         id="stop49" /></linearGradient><linearGradient
       id="linearGradient38"><stop
         style="stop-color:#000000;stop-opacity:1;"
         offset="0"
         id="stop38" /><stop
         style="stop-color:#000000;stop-opacity:0;"
         offset="1"
         id="stop39" /></linearGradient><linearGradient
       id="swatch32"><stop
         style="stop-color:#ffd600;stop-opacity:1;"
         offset="0"
         id="stop32" /></linearGradient><clipPath
       clipPathUnits="userSpaceOnUse"
       id="clipPath30-4"><path
         id="path30-3"
         style="fill:#0f4a1c;fill-opacity:1;stroke-width:0.326817;stroke-dasharray:none"
         d="m 516.33276,777.19833 c 1.20655,-2.59844 -3.52625,-10.5088 -4.6973,-18.82077 -1.59057,-11.2897 -1.51276,-17.47146 0.29838,-23.70776 0.80185,-2.76098 1.5245,-4.37089 2.70795,-6.03272 l 0.57892,-0.81293 1.72996,4.47463 c 2.64287,6.83591 3.37651,10.88159 3.48404,19.21306 0.037,2.86988 0.14088,5.21402 0.23095,5.20922 0.31095,-0.0166 2.62693,-4.57549 3.37606,-6.64564 1.09589,-3.0284 1.16199,-4.85311 0.43533,-12.02039 -0.97517,-9.61864 -0.44056,-15.21513 2.04766,-21.43522 1.08264,-2.70642 3.52359,-6.76001 4.07065,-6.76001 0.28351,0 0.98098,3.11754 1.67941,7.50653 0.41577,2.61272 0.52465,5.09567 0.52541,11.98352 l 5.1e-4,8.68799 1.5191,-2.09691 c 2.54359,-3.51104 2.73132,-4.21177 4.02795,-15.03373 1.20434,-10.05185 2.70995,-14.33742 6.84,-19.46936 2.48003,-3.08165 3.92234,-4.38625 4.31078,-3.89914 0.39341,0.49333 0.46362,8.75678 0.0965,11.37204 -0.56507,4.02719 -3.33164,14.3706 -4.11758,15.39456 -0.81467,1.06137 -0.007,0.6825 1.87293,-0.87898 3.25282,-2.70133 4.14919,-4.22509 6.90465,-11.73758 3.64505,-9.93787 5.5435,-13.54876 8.62128,-16.39775 1.7161,-1.58856 4.31577,-3.3922 5.62094,-3.89978 0.61178,-0.23796 0.65665,-0.1468 0.65191,1.32538 -0.007,2.2848 -0.67897,5.92364 -1.71544,9.29409 -0.94625,3.07703 -4.54335,10.38892 -5.47469,11.12859 -0.45823,0.36389 -0.38606,0.39788 0.46336,0.21837 3.07747,-0.6504 5.35353,-2.24715 6.86814,-4.81829 0.48711,-0.82695 2.06829,-3.52464 3.51367,-5.99489 2.82267,-4.82407 4.97378,-7.52117 7.5572,-9.47533 2.12967,-1.61093 4.77274,-2.93268 6.43609,-3.21861 1.18572,-0.20381 1.33656,-0.15066 1.33656,0.47118 0,2.3423 -3.78822,9.35275 -8.23279,15.23558 -1.17923,1.56082 -2.01018,2.83668 -1.84657,2.83525 0.84493,-0.007 5.27569,-1.54976 6.25933,-2.17906 0.62301,-0.39858 2.27101,-2.04708 3.66222,-3.66338 3.89508,-4.52523 6.7956,-6.69214 10.23174,-7.64384 2.19814,-0.60882 5.69394,-0.67272 5.69394,-0.10403 0,1.12801 -8.23771,10.46646 -10.53302,11.94044 -0.30957,0.1988 -0.56287,0.44935 -0.56287,0.55677 0,0.10752 1.41253,0.0765 3.13897,-0.0685 3.10357,-0.26094 3.17721,-0.28875 6.53183,-2.4672 4.30455,-2.79531 7.13281,-3.80777 10.62301,-3.80283 1.66586,10e-4 3.00214,0.20296 3.64998,0.54797 l 1.02198,0.54422 -1.77663,1.44741 c -0.97716,0.79606 -2.81673,2.00128 -4.08797,2.67823 -1.27122,0.67696 -2.89009,1.53699 -3.59746,1.91118 -0.70733,0.37421 -1.19457,0.79514 -1.08272,0.9354 0.11186,0.14032 3.37854,0.24315 7.00547,1.40268 5.67908,1.81562 5.88887,3.12077 11.27724,5.88116 0.0317,0.0166 0.68983,0.51552 1.53298,1.06606 2.72991,1.78248 6.46109,5.84778 8.14179,8.87089 0.82328,1.48086 0.83548,1.55622 0.25181,1.55622 -1.34262,0 -4.93376,-1.24856 -6.98972,-2.43018 -1.19521,-0.68691 -3.16619,-2.20651 -4.37996,-3.37691 -3.14893,-3.03637 -6.5675,-4.90574 -6.83273,-4.57002 l -0.13052,0.13255 0.53012,0.9104 c 0.95029,1.63194 4.64377,8.38354 4.29151,8.82529 -0.19479,0.24427 -2.46137,-0.85547 -4.31095,-2.09172 -0.94462,-0.63137 -2.34675,-1.95332 -3.11582,-2.93766 -0.76907,-0.98432 -1.63033,-1.82209 -1.77075,-2.07845 -0.15048,-0.27491 -0.80216,-0.94673 -1.43458,-1.73748 -0.84192,-1.05273 -1.06822,-2.1426 -1.5811,-2.3097 -0.53716,-0.17503 -0.99505,-0.38768 -2.18997,-0.35526 -0.84657,0.0229 -1.47871,0.0786 -1.53842,0.14606 -0.0598,0.0675 0.54784,1.15999 1.35012,2.42775 1.69315,2.67545 4.58694,8.30017 4.39448,8.54154 -0.275,0.34482 -3.53235,-0.9721 -5.56286,-2.24906 -1.60235,-1.00764 -2.86273,-2.25058 -5.18341,-5.11168 -3.29136,-4.05796 -4.44968,-4.91763 -6.62585,-4.91763 h -1.38906 l 2.07855,2.65473 c 2.02278,2.58353 5.64477,8.61744 5.64477,9.40369 0,0.9245 -3.40169,0.0759 -6.24942,-1.55904 -2.25739,-1.29599 -4.36384,-3.10614 -6.91062,-5.93849 -2.9299,-3.25841 -3.4444,-3.56699 -5.42892,-3.25607 -0.88604,0.13886 -2.21451,0.44547 -2.95218,0.68147 l -1.34118,0.42904 1.29424,0.9626 c 2.57756,1.91702 10.25493,11.81053 9.70253,12.50326 -0.31609,0.39642 -2.77601,0.24005 -4.83601,-0.30736 -2.87119,-0.76297 -5.15038,-2.11933 -9.26622,-5.51437 -2.00748,-1.65592 -3.96446,-3.21454 -4.34884,-3.46362 -1.09452,-0.70929 -3.48913,-0.27211 -5.73798,1.0476 l -2.02235,1.18677 1.67824,0.85535 c 3.16396,1.61258 7.88616,5.51406 10.7739,8.90135 0.76975,0.9029 1.32822,1.7864 1.24105,1.96328 -0.0872,0.1769 -1.49757,0.32012 -3.13425,0.31827 -3.52024,-0.004 -7.61563,-1.06571 -12.02765,-3.11832 -7.01953,-3.26578 -6.07793,-2.98741 -7.65122,-2.2617 -1.34923,0.62233 -4.17294,2.79023 -4.17411,3.2046 -2.8e-4,0.11076 0.82069,0.41087 1.82442,0.66693 3.36948,0.85955 9.30717,4.16685 12.7019,7.07499 0.68253,0.58471 1.24098,1.20509 1.24098,1.37861 0,0.17356 -1.01835,0.76064 -2.26299,1.30468 -1.91974,0.83919 -2.883,1.01483 -6.35094,1.15819 -4.36769,0.18058 -5.48382,-0.0109 -11.24188,-1.92397 -1.98657,-0.66018 -3.34784,-0.92946 -3.86662,-0.76492 -0.83828,0.2659 -4.30932,4.26398 -4.30932,4.96362 0,0.26523 0.92908,0.40702 2.70098,0.41221 3.79787,0.0109 11.19496,2.26999 14.66455,4.47811 l 1.15969,0.73803 -1.01368,1.06905 c -3.54851,3.74225 -11.38466,5.53767 -20.37182,4.66763 -4.54018,-0.43955 -5.09321,-0.29314 -5.99054,1.58576 -1.93558,4.05286 -2.48002,5.3759 -2.63496,6.4029 -0.20569,1.36361 -0.17319,1.38466 0.98116,0.63609 2.02496,-1.31317 5.8673,-2.14013 10.06663,-2.16657 3.9736,-0.0251 8.90592,0.67972 8.90592,1.27252 0,0.64147 -1.61893,2.64213 -3.82465,4.72639 -2.84334,2.68674 -7.48212,5.59677 -10.68052,6.70014 l -9.14155,1.6065 m 90.02117,-69.44665 c 3.59264,-0.64274 7.43195,-1.40581 10.78115,-1.29927 2.53912,0.0807 5.48612,0.60867 6.08632,0.86064 l 2.06751,0.86792 1.6849,1.40314 -0.0338,0.69432 -1.43434,-0.005 -2.07629,0.33977 -3.21799,0.0762 -4.54029,0.52087 c -1.74528,0.2002 -2.57304,-0.73579 -2.57304,-0.73579 m -38.54565,126.00509 c -5.52044,-0.40082 -15.13335,-2.19338 -19.62462,-3.65949 -27.57112,-9.00011 -44.32885,-33.26376 -44.32885,-63.33899 0,-5.84219 9.14721,-0.44453 10.62329,9.32496 0.0573,0.38038 0.1867,0.90117 0.24035,1.29061 0.058,0.42022 0.253,0.79675 0.35697,1.20828 5.2636,16.88855 24.87621,32.59587 41.6138,36.95129 43.54525,-9.28384 85.56855,21.61175 11.11881,18.22335 z M 776.20218,704.29349 c -448.69708,-553.54959 -448.69708,-553.54959 0,0 z" /></clipPath></defs><g
     id="g1"
     transform="translate(-431.00001,-704.00001)"><rect
       x="431"
       y="704"
       width="136.66919"
       height="136.66919"
       rx="32.800602"
       fill="#1a6a55"
       id="rect1-3-6-8"
       style="fill:#a9c8ab;fill-opacity:0.37773;stroke-width:2.73338" /><rect
       x="503.54498"
       y="665.19354"
       width="136.66919"
       height="136.66919"
       rx="32.800602"
       fill="#1a6a55"
       id="rect1-3-68"
       style="fill:#005900;fill-opacity:1;stroke-width:2.73338"
       clip-path="url(#clipPath30-4)"
       transform="translate(-71.870225,38.95574)" /></g></svg>
