<?xml version="1.0" encoding="UTF-8" standalone="no"?>
<!-- Created with Inkscape (http://www.inkscape.org/) -->

<svg
   version="1.1"
   id="svg1"
   width="1024"
   height="1024"
   viewBox="0 0 1024 1024"
   sodipodi:docname="FINAL.svg"
   xml:space="preserve"
   inkscape:version="1.4 (86a8ad7, 2024-10-11)"
   inkscape:export-filename="FINAL.png"
   inkscape:export-xdpi="96"
   inkscape:export-ydpi="96"
   xmlns:inkscape="http://www.inkscape.org/namespaces/inkscape"
   xmlns:sodipodi="http://sodipodi.sourceforge.net/DTD/sodipodi-0.dtd"
   xmlns="http://www.w3.org/2000/svg"
   xmlns:svg="http://www.w3.org/2000/svg"><defs
     id="defs1"><rect
       x="-436.53562"
       y="459.62692"
       width="407.94639"
       height="213.04478"
       id="rect5" /><rect
       x="-622.01974"
       y="615.79954"
       width="575.36826"
       height="94.858011"
       id="rect3" /></defs><sodipodi:namedview
     id="namedview1"
     pagecolor="#ffffff"
     bordercolor="#000000"
     borderopacity="0.25"
     inkscape:showpageshadow="2"
     inkscape:pageopacity="0.0"
     inkscape:pagecheckerboard="0"
     inkscape:deskcolor="#d1d1d1"
     showgrid="false"
     inkscape:zoom="0.90943323"
     inkscape:cx="125.90259"
     inkscape:cy="418.39245"
     inkscape:window-width="2880"
     inkscape:window-height="1526"
     inkscape:window-x="-11"
     inkscape:window-y="-11"
     inkscape:window-maximized="1"
     inkscape:current-layer="g1" /><g
     inkscape:groupmode="layer"
     inkscape:label="Image"
     id="g1"><path
       id="path2-5-1-2-1"
       style="fill:#003e00;fill-opacity:1;stroke-width:0.52706"
       d="m 115.05316,470.17152 c 1.94475,-4.18834 -5.68387,-16.93872 -7.57143,-30.33651 -2.56375,-18.19745 -2.43834,-28.16158 0.48097,-38.21368 1.29246,-4.45031 2.45727,-7.04526 4.36483,-9.72393 l 0.93313,-1.31031 2.78847,7.2125 c 4.25994,11.01855 5.44246,17.53962 5.61579,30.96881 0.0597,4.62585 0.22723,8.4043 0.37228,8.39657 0.50119,-0.0266 4.23423,-7.37507 5.44174,-10.71188 1.76644,-4.88136 1.87296,-7.82256 0.7017,-19.37523 -1.57186,-15.50393 -0.71013,-24.52473 3.30053,-34.55064 1.74508,-4.36239 5.67955,-10.89622 6.56133,-10.89622 0.45698,0 1.58122,5.02505 2.70699,12.0995 0.67016,4.21134 0.84564,8.21354 0.8469,19.31581 l 8.1e-4,14.00385 2.44858,-3.3799 c 4.09991,-5.65935 4.40252,-6.78884 6.49249,-24.23236 1.94125,-16.20219 4.3681,-23.10994 11.02516,-31.38192 3.99748,-4.96723 6.3223,-7.07007 6.9484,-6.28491 0.63411,0.79517 0.74729,14.11473 0.15577,18.33017 -0.91085,6.49128 -5.37018,23.16346 -6.63698,24.81391 -1.31316,1.71082 -0.0119,1.10014 3.01889,-1.41677 5.24312,-4.35415 6.68794,-6.81027 11.12936,-18.91937 5.87531,-16.01848 8.93537,-21.83874 13.89629,-26.43092 2.76614,-2.56055 6.95645,-5.46776 9.0602,-6.28594 0.98612,-0.38352 1.05843,-0.23655 1.05082,2.13635 -0.0118,3.6828 -1.0944,9.54809 -2.76508,14.98079 -1.52523,4.95976 -7.32325,16.74556 -8.82446,17.93777 -0.73857,0.58655 -0.62228,0.64135 0.74689,0.35201 4.96044,-1.04837 8.62915,-3.62212 11.07049,-7.76644 0.78519,-1.33293 3.33381,-5.68125 5.66358,-9.66294 4.54975,-7.77577 8.01703,-12.12309 12.18116,-15.27294 3.43274,-2.59662 7.69298,-4.72709 10.37413,-5.18794 1.9112,-0.32851 2.15434,-0.24279 2.15434,0.75946 0,3.77546 -6.10609,15.07534 -13.27016,24.55767 -1.90074,2.51581 -3.24012,4.57232 -2.97641,4.57005 1.3619,-0.0119 8.50368,-2.49801 10.0892,-3.51235 1.00419,-0.64246 3.66055,-3.29964 5.90299,-5.90488 6.27831,-7.29406 10.95358,-10.78683 16.49214,-12.32084 3.54313,-0.98133 9.17787,-1.08431 9.17787,-0.16773 0,1.81822 -13.27808,16.8705 -16.9778,19.24636 -0.499,0.32044 -0.90727,0.72429 -0.90727,0.89743 0,0.17313 2.27681,0.12338 5.05959,-0.11048 5.00256,-0.42056 5.12125,-0.46539 10.52843,-3.97675 6.93832,-4.50567 11.49708,-6.13762 17.12283,-6.12964 2.68515,0.004 4.83903,0.32715 5.88325,0.88323 l 1.6473,0.8772 -2.86369,2.33304 c -1.57503,1.28316 -4.54018,3.2258 -6.58924,4.31696 -2.04905,1.09116 -4.6584,2.47741 -5.79858,3.08056 -1.14016,0.60315 -1.92552,1.28163 -1.74521,1.50773 0.18031,0.2261 5.44572,0.3919 11.29185,2.26092 9.15392,2.92652 9.49203,5.03026 18.17737,9.47964 0.0513,0.0263 1.11192,0.83094 2.47095,1.71831 4.40024,2.87312 10.4144,9.42585 13.12344,14.29867 1.32703,2.38695 1.3467,2.50843 0.40589,2.50843 -2.1641,0 -7.95254,-2.01251 -11.26648,-3.9171 -1.92651,-1.10722 -5.10347,-3.55661 -7.0599,-5.44313 -5.07562,-4.89423 -10.58588,-7.90741 -11.01342,-7.36626 l -0.2105,0.21356 0.85449,1.46744 c 1.53172,2.63047 7.48511,13.51314 6.91733,14.22515 -0.31399,0.39376 -3.96739,-1.37888 -6.94868,-3.37156 -1.52262,-1.01769 -3.78265,-3.14849 -5.02229,-4.73509 -1.23963,-1.58659 -2.62787,-2.93699 -2.85419,-3.3502 -0.24269,-0.44309 -1.29297,-1.52599 -2.31234,-2.80058 -1.35709,-1.69685 -1.72182,-3.45357 -2.54853,-3.72289 -0.86585,-0.28207 -1.6039,-0.6249 -3.52995,-0.57264 -1.36453,0.037 -2.38345,0.12663 -2.4797,0.23546 -0.0963,0.10891 0.88306,1.86977 2.17624,3.91321 2.72909,4.31247 7.3935,13.37873 7.08324,13.76782 -0.44323,0.5558 -5.69364,-1.56692 -8.96656,-3.62517 -2.58276,-1.62421 -4.61432,-3.62766 -8.35492,-8.23935 -5.30524,-6.54088 -7.17229,-7.92656 -10.67999,-7.92656 h -2.23896 l 3.35033,4.27908 c 3.26047,4.16431 9.09858,13.89012 9.09858,15.15748 0,1.49013 -5.48304,0.1222 -10.07318,-2.51299 -3.63859,-2.08895 -7.03393,-5.00666 -11.13898,-9.57202 -4.72256,-5.25213 -5.55188,-5.74953 -8.75065,-5.24835 -1.42818,0.22377 -3.56951,0.71806 -4.75851,1.09844 l -2.16182,0.69156 2.08614,1.55155 c 4.1547,3.08999 16.52956,19.03699 15.63917,20.15357 -0.50951,0.63895 -4.47455,0.38693 -7.795,-0.49542 -4.62796,-1.2298 -8.3017,-3.41607 -14.93589,-8.88841 -3.23578,-2.66912 -6.39016,-5.18141 -7.00972,-5.58291 -1.76423,-1.14325 -5.62401,-0.43856 -9.24887,1.6886 l -3.25972,1.91291 2.7051,1.37873 c 5.09986,2.59926 12.71141,8.8879 17.36604,14.34774 1.24074,1.45537 2.14091,2.87942 2.0004,3.16454 -0.14052,0.28511 -2.4139,0.51599 -5.05197,0.51303 -5.67418,-0.007 -12.27539,-1.71777 -19.38694,-5.02632 -11.31455,-5.26398 -9.79679,-4.81532 -12.33272,-3.64556 -2.17475,1.00313 -6.72621,4.49746 -6.72809,5.16539 -4.7e-4,0.17851 1.32283,0.66226 2.94071,1.07498 5.43116,1.38548 15.0019,6.7164 20.47372,11.40393 1.10015,0.94246 2.00029,1.94242 2.00029,2.22213 0,0.27967 -1.64143,1.22603 -3.64761,2.10297 -3.09438,1.35264 -4.647,1.63578 -10.23685,1.86685 -7.04015,0.29099 -8.83918,-0.0168 -18.1204,-3.10119 -3.20205,-1.0641 -5.39627,-1.49816 -6.23244,-1.23294 -1.35121,0.42861 -6.94604,6.87294 -6.94604,8.00068 0,0.42752 1.49755,0.65606 4.3536,0.66443 6.12166,0.018 18.04476,3.6589 23.63728,7.21808 l 1.86924,1.18963 -1.63391,1.72313 c -5.71974,6.03202 -18.35054,8.92601 -32.83658,7.52361 -7.31815,-0.70849 -8.20959,-0.47252 -9.65594,2.55601 -3.11989,6.53267 -3.99748,8.66522 -4.24719,10.3206 -0.33155,2.19796 -0.2792,2.23189 1.58147,1.02529 3.26399,-2.11665 9.45731,-3.44959 16.22604,-3.49222 6.40491,-0.0403 14.35513,1.09563 14.35513,2.05114 0,1.034 -2.60948,4.25873 -6.16481,7.61828 -4.58308,4.3307 -12.06015,9.02126 -17.21553,10.79973 l -14.73495,2.58944 M 269.05763,361.62063 c 5.79081,-1.03601 11.97925,-2.26598 17.37773,-2.09427 4.09271,0.13018 8.84287,0.98111 9.81031,1.38723 l 3.33256,1.39898 2.71583,2.26169 -0.0545,1.11915 -2.31195,-0.009 -3.3467,0.54769 -5.18697,0.12278 -7.31833,0.83953 c -2.81314,0.32271 -4.14737,-1.18598 -4.14737,-1.18598 M 217.79793,569.1114 c -8.8982,-0.64608 -24.3929,-3.53542 -31.6322,-5.89858 -44.4409,-14.50696 -71.45208,-53.61665 -71.45208,-102.09378 0,-9.41681 14.74408,-0.71653 17.12333,15.03056 0.0926,0.61308 0.3009,1.45256 0.38739,2.08028 0.0933,0.67733 0.40781,1.28422 0.5754,1.94757 8.4842,27.22203 40.09705,52.54009 67.07575,59.56043 7.6994,2.00352 15.78275,3.43875 29.89835,3.42219 13.7344,-0.0161 22.02225,-1.76127 28.96895,-3.58595 14.26,-3.74562 22.27491,-13.66022 26.41661,-22.71671 1.8291,-3.99964 2.0929,-6.50393 2.1141,-20.06986 l 0.024,-15.5 -29.75,-0.26488 -29.75,-0.26488 V 465.7727 450.78758 h 47.5894 47.5893 l -0.4419,34.25 c -0.4754,36.8315 -0.5698,37.56678 -6.2729,48.82129 -3.404,6.71735 -13.0063,16.35378 -21.2512,21.32669 -17.1235,10.32795 -48.5936,16.00383 -77.2127,13.92587 z m 410.00004,0.0416 c -15.2874,-1.46109 -24.2348,-4.29805 -33.0436,-10.47705 -10.9441,-7.67684 -16.8008,-17.8448 -17.679,-30.69298 -0.863,-12.62594 2.2072,-22.70639 9.8577,-32.36591 3.3853,-4.27436 13.9776,-11.49875 21.4085,-14.60153 8.216,-3.4306 24.5433,-6.24148 41.4619,-7.13799 17.6895,-0.93736 23.0762,-2.57246 26.2664,-7.97302 2.521,-4.26785 2.2058,-10.62618 -0.7795,-15.72019 -1.9682,-3.35842 -3.9498,-4.98893 -9.2114,-7.57921 -6.0733,-2.98984 -7.7108,-3.33472 -17.4098,-3.6667 -12.425,-0.42528 -18.9158,1.19342 -24.5214,6.11515 -3.7248,3.27047 -7.2921,9.38525 -8.3039,14.234 l -0.626,3 -16.7099,0.27418 c -19.0948,0.31331 -17.7287,1.17214 -15.1995,-9.55566 6.9126,-29.31982 37.2285,-45.54768 76.0847,-40.72753 29.1996,3.62225 45.1499,15.37071 51.0774,37.62191 1.5071,5.65742 1.6943,12.61338 1.6385,60.8871 l -0.063,54.5 h -16.3741 -16.374 l -0.2931,-7.80397 -0.293,-7.80398 -5.1224,4.60547 c -10.7345,9.6513 -31.1199,16.27015 -45.7915,14.86791 z m 23.1311,-26.80568 c 12.5207,-2.65389 22.7711,-9.62026 27.0349,-18.37332 1.9572,-4.01797 2.3383,-6.64769 2.6719,-18.43643 0.214,-7.5625 0.1674,-13.75 -0.1036,-13.75 -0.2709,0 -2.9138,1.10848 -5.8731,2.46329 -3.547,1.62385 -8.6999,2.81658 -15.1209,3.5 -5.3571,0.57019 -13.9994,1.48799 -19.205,2.03955 -19.7657,2.0943 -28.5353,8.9013 -28.5353,22.14932 0,16.70339 16.3583,25.23453 39.1311,20.40759 z m -266.94054,24.46273 c -9.6476,-2.59003 -16.5553,-6.40159 -22.8312,-12.59785 -15.9372,-15.73498 -16.5792,-41.43124 -1.4635,-58.57642 11.7824,-13.3644 29.453,-19.62812 61.41124,-21.7686 8.4679,-0.56716 15.9938,-1.59632 18.0958,-2.47458 13.8843,-5.80124 11.8066,-22.7444 -3.6456,-29.72875 -4.6407,-2.09757 -6.7234,-2.37484 -17.7573,-2.36398 -11.6969,0.0115 -12.8379,0.18957 -17.7594,2.77159 -6.27044,3.28975 -10.59164,8.8424 -12.24514,15.73458 l -1.195,4.98153 -15.6503,-0.0153 c -8.6076,-0.008 -16.145,-0.34592 -16.7497,-0.75 -0.7905,-0.52824 -0.7032,-2.67317 0.3106,-7.63329 5.9398,-29.05935 36.0943,-46.532 73.48624,-42.58055 19.7512,2.08725 31.665,6.83152 41.3469,16.46513 3.518,3.50044 7.1138,8.31277 8.6034,11.51403 5.2754,11.33699 5.3524,12.35879 5.3524,71 v 54.5 l -16.75,0.27417 -16.75,0.27418 v -8.02418 c 0,-4.41329 -0.3658,-8.02417 -0.8129,-8.02417 -0.4471,0 -2.1114,1.35531 -3.6984,3.0118 -4.3777,4.56929 -14.2259,10.57609 -21.4887,13.10672 -9.3126,3.24487 -29.39144,3.7008 -39.80944,0.90395 z m 36.97254,-24.46943 c 13.4513,-2.85097 23.7226,-9.66914 28.2486,-18.75176 2.3927,-4.8014 2.5883,-6.19505 2.5883,-18.43862 0,-12.13959 -0.769,-16.16347 -2.5411,-13.29622 -0.892,1.44334 -8.0221,4.45777 -12.5168,5.29186 -1.9569,0.36314 -9.5355,1.11515 -16.8414,1.67114 -25.92854,1.97319 -36.41664,8.83977 -36.23884,23.72553 0.194,16.24702 15.56454,24.4051 37.30124,19.79807 z m 94.8369,-52.55302 v -76 h 17 17 v 76 76 h -17 -17 z m 229.6667,75.33333 c -0.3667,-0.36667 -0.6667,-34.56667 -0.6667,-76 V 413.7876 h 16.9999 17 v 10.02548 10.02548 l 5.75,-5.85829 c 10.8151,-11.01872 26.3587,-16.47911 46.75,-16.423 29.4376,0.081 47.08604,12.05017 54.15864,36.73033 1.5106,5.27121 1.7654,12.77464 2.098,61.77448 l 0.3785,55.77449 -16.8176,-0.27449 -16.81754,-0.27448 -0.5,-52 -0.5,-52 -2.3633,-5.22705 c -2.9084,-6.43292 -9.1458,-12.34112 -15.6953,-14.86717 -7.6968,-2.9685 -26.8374,-2.67794 -34.9104,0.52995 -7.9589,3.16256 -15.4063,10.59715 -18.6272,18.59526 l -2.4038,5.96901 -0.2855,49.75 -0.2854,49.75 h -16.2979 c -8.9638,0 -16.5978,-0.3 -16.9644,-0.66667 z m -221.355,-175.22408 c -8.2292,-3.84362 -13.005,-14.51415 -10.395,-23.22538 2.6128,-8.72096 10.4441,-14.1501 20.2125,-14.0126 8.5072,0.11976 14.2166,3.81905 18.2566,11.82904 3.8143,7.56231 0.552,18.38424 -7.1564,23.74021 -5.6134,3.90035 -14.6042,4.6176 -20.9177,1.66873 z"
       sodipodi:nodetypes="cssscsscsssssccssssssssssssscsssssscsssssscscscsssssssssssccsssssssssssscscsssssscsssssscssscssssssssssssscsssssssscccssccccccsccsssscsssscccccccccssccsssssssssssscssssscccccssssssssssssssssssssccscsssscccsssssssssssssscccccccccsscccccsssscccccsssscccssssssss" /><text
       xml:space="preserve"
       id="text3"
       style="text-align:start;writing-mode:lr-tb;direction:ltr;white-space:pre;shape-inside:url(#rect3);display:inline;fill:#003e00;fill-opacity:1;stroke:#ffd542;stroke-width:0;stroke-opacity:0.99" /><text
       xml:space="preserve"
       id="text5"
       style="text-align:start;writing-mode:lr-tb;direction:ltr;white-space:pre;shape-inside:url(#rect5);display:inline;fill:#003e00;fill-opacity:1;stroke:#ffd542;stroke-width:0;stroke-opacity:0.99" /><text
       xml:space="preserve"
       style="text-align:start;writing-mode:lr-tb;direction:ltr;text-anchor:start;fill:#003e00;fill-opacity:1;stroke:#ffd542;stroke-width:0;stroke-opacity:0.99"
       x="-37.385921"
       y="682.84283"
       id="text7"><tspan
         sodipodi:role="line"
         id="tspan7"
         x="-37.385921"
         y="682.84283">``</tspan></text><path
       id="path2-5-1-2"
       style="fill:#003e00;fill-opacity:1;stroke-width:0.546967"
       d="m 263.31622,656.99646 c -22.44404,-5.65693 -29.97988,-32.68794 -14.06829,-50.46246 10.98033,-12.26596 34.95921,-12.38842 45.56774,-0.23269 2.00175,2.29372 3.50081,4.57857 3.33127,5.0774 -0.16956,0.49886 -2.50267,2.12822 -5.18469,3.62083 l -4.87643,2.71383 -2.34392,-2.92277 c -3.02945,-3.77744 -7.9733,-5.75696 -14.37803,-5.75696 -5.95161,0 -10.86363,2.74447 -14.57197,8.14161 -3.23696,4.71111 -3.35366,15.06442 -0.23112,20.51352 5.93704,10.36066 20.37001,12.0936 29.4759,3.53916 l 2.81092,-2.64066 4.74793,2.95212 c 2.61133,1.62367 4.76517,3.48234 4.78619,4.13035 0.0526,1.62618 -6.50061,7.1176 -11.44892,9.5936 -5.25994,2.63189 -16.71521,3.4725 -23.61658,1.73312 z m 220.66714,0.19824 c -13.69152,-3.17218 -22.4257,-14.69954 -22.47418,-29.6613 -0.0566,-17.60346 12.32551,-30.17983 29.72,-30.18497 17.59745,-0.005 30.1166,10.59359 32.05351,27.13675 2.47212,21.11432 -17.5214,37.75534 -39.29933,32.70952 z m 15.57576,-11.77454 c 2.83392,-1.11212 5.20392,-3.15568 7.35628,-6.34277 2.74013,-4.05736 3.1755,-5.64346 3.1755,-11.56821 0,-5.43984 -0.49496,-7.58651 -2.38269,-10.33393 -3.81779,-5.55657 -8.58892,-8.14161 -15.02667,-8.14161 -6.99647,0 -11.80478,2.21048 -15.11501,6.94877 -2.21682,3.17308 -2.57951,4.85867 -2.57951,11.98956 0,7.11356 0.35902,8.7911 2.51614,11.75743 2.85971,3.93277 9.48724,7.27558 14.49067,7.30894 1.86135,0.0125 5.26579,-0.71575 7.56529,-1.61818 z m 116.36723,12.05134 c -14.3459,-4.65826 -21.91734,-14.61844 -22.08034,-29.04674 -0.18195,-16.10124 7.70618,-26.49651 23.09733,-30.43856 15.59044,-3.99309 33.00863,5.38772 37.3785,20.13069 4.63251,15.62982 -2.06948,31.28624 -15.97525,37.31932 -4.90578,2.12839 -18.36943,3.3506 -22.42024,2.03529 z m 19.3426,-13.90585 c 14.64158,-10.95331 7.13449,-34.76919 -10.95961,-34.76919 -10.51741,0 -17.8139,7.66713 -17.8139,18.71891 0,6.34073 1.8566,10.88921 6.00556,14.71252 6.09895,5.62034 16.24642,6.21656 22.76795,1.33776 z m 60.29588,13.8198 c -6.06773,-1.23157 -10.77857,-3.67055 -15.07456,-7.80432 -5.96402,-5.73883 -8.2544,-11.58977 -8.2544,-21.08614 0,-18.59539 12.57736,-30.97012 31.5996,-31.09026 6.42527,-0.0406 9.14784,0.46575 13.8447,2.57479 6.53631,2.93504 10.68388,6.65737 9.54632,8.56794 -0.41207,0.6923 -2.2996,2.52823 -4.19446,4.07984 -3.1047,2.54213 -3.62277,2.66864 -5.23942,1.27931 -6.59114,-5.6641 -17.04835,-6.56724 -24.10173,-2.08154 -11.72962,7.45965 -11.30218,26.73703 0.72895,32.87841 5.34373,2.7278 12.06564,3.0628 17.42076,0.86824 3.29875,-1.35185 3.63387,-1.87322 3.63387,-5.65271 v -4.16349 h -6.28724 -6.28724 v -5.65271 -5.65271 h 12.57448 12.57459 v 12.15404 c 0,11.29247 -0.16717,12.30391 -2.35771,14.26848 -6.58111,5.90204 -19.44016,8.68204 -30.12651,6.51283 z M 856.25,657.34135 c -5.10536,-1.04443 -11.97075,-4.30613 -13.9251,-6.61582 -1.16017,-1.37125 -0.94054,-2.26644 1.4118,-5.75287 l 2.78584,-4.12892 4.6343,2.66374 c 11.0298,6.3398 26.67517,3.23134 24.08137,-4.7846 -0.7524,-2.32499 -7.2787,-5.43125 -13.63576,-6.49018 -6.34465,-1.05687 -14.1357,-5.72414 -16.42331,-9.8386 -2.34015,-4.20876 -1.97042,-11.64065 0.80847,-16.25477 4.07193,-6.76102 14.67955,-10.16886 25.5871,-8.2203 5.8716,1.04891 12.9705,4.05638 14.2072,6.01904 0.9519,1.51072 -0.1583,5.12239 -2.4676,8.02656 l -1.9223,2.41757 -5.1539,-2.54789 c -6.998,-3.45935 -11.24833,-4.22038 -15.63717,-2.79971 -4.4486,1.43998 -6.30926,4.26393 -4.72394,7.16937 1.50283,2.75408 3.38193,3.57759 12.76481,5.59409 9.375,2.01479 16.0024,6.16329 18.241,11.41829 3.7116,8.71238 0.1461,17.46056 -8.9899,22.05712 -4.4202,2.2241 -15.63963,3.29604 -21.64291,2.06788 z M 135.99917,633.44301 v -23.38165 h -8.9069 -8.90699 v -5.65269 -5.65271 h 23.57722 24.3631 c 0.4323,0 0.78597,2.42809 0.78597,5.39576 v 5.39577 l -9.69287,0.29551 -9.69286,0.29552 v 23.34306 23.34304 h -5.76334 -5.76333 z m 47.97047,-5.65332 -0.2921,-29.03498 22.26734,6.3e-4 22.26745,6.2e-4 v 5.65271 5.65269 h -16.29442 -16.2943 l 0.3142,5.90965 0.31431,5.90966 13.36034,0.28765 13.36046,0.28764 v 5.59023 5.59023 l -13.36046,-0.22518 -13.36034,-0.22516 -0.31133,6.39649 -0.31124,6.39649 16.02928,0.28398 16.02959,0.28397 0.30697,5.13877 0.30707,5.13884 H 206.282 184.26164 Z m 131.21445,6.2e-4 v -29.03435 h 5.23941 c 2.88172,0 5.59308,-0.11563 6.02529,-0.25695 0.43229,-0.14131 1.02164,5.06175 1.30987,11.56235 l 0.52391,11.81931 h 14.01613 14.01624 l -0.1872,-11.46832 -0.1871,-11.46833 6.34444,-0.35097 6.34445,-0.35097 v 28.93923 28.93918 l -5.85285,0.35211 c -3.21913,0.19364 -6.04839,0.1593 -6.28724,-0.076 -0.23896,-0.23556 -0.43439,-5.43863 -0.43439,-11.56235 v -11.13413 h -14.14631 -14.14631 v 11.21413 11.21411 l -6.28912,0.3482 -6.28922,0.34821 z m 75.69346,-0.14916 0.2795,-29.18352 6.08915,0.0406 c 3.3491,0.0223 6.2208,0.20508 6.38182,0.40611 4.67466,5.84101 17.45577,22.84373 21.46521,28.55512 l 5.3591,7.63429 v -18.16887 -18.16891 h 6.24163 6.24153 l -0.21625,28.91412 -0.21634,28.91412 -5.58942,3.1e-4 -5.58951,3.1e-4 -5.41324,-7.1146 c -2.97729,-3.91305 -9.18561,-12.18397 -13.79621,-18.37985 l -8.38299,-11.26523 -0.28574,18.15272 -0.28586,18.15269 -6.28089,0.34707 -6.281,0.34708 z m 359.61355,28.75529 c -0.24025,-0.23555 -0.43666,-13.301 -0.43666,-29.03436 v -28.60612 h 6.28724 6.28724 v 29.03435 29.03431 h -5.85058 c -3.21793,0 -6.0472,-0.19272 -6.28724,-0.42818 z m 34.14231,-28.60613 9e-4,-29.03435 h 22.39168 22.39158 l -0.12424,5.39576 -0.12433,5.39577 -15.98011,0.2837 -15.9801,0.28373 v 6.1398 6.13982 h 13.15332 13.15312 l -0.31668,5.39577 -0.31679,5.39577 -12.8874,-0.38762 -12.88741,-0.38762 0.31293,7.01105 0.31292,7.01105 15.71805,0.057 15.71815,0.057 0.31777,4.84266 0.31778,4.84263 -22.58611,0.29619 -22.58612,0.2961 z m -242.05839,-0.25695 v -28.7774 h 6.28725 6.28733 v 23.60875 23.60876 l 13.88426,0.28677 13.88436,0.28677 0.31936,4.88184 0.31947,4.88187 h -20.49097 -20.49106 z"
       sodipodi:nodetypes="ssssscssssscscssscsssssssssssssssssssssssssssssssssssscccccccsssssscsssssssscssssssscccccccsscccccccccccccccccccccccccccccccccccssscccccccccsssccccccccccscscccccccccssccccccsscccccsscccccccccccccccccccccccccccccccccccccc" /></g></svg>
