<svg width="620" height="540" viewBox="0 0 620 540" fill="none" xmlns="http://www.w3.org/2000/svg">
  <rect width="620" height="540" rx="36" fill="url(#bg)"/>
  <circle cx="140" cy="120" r="12" fill="#1A6A55"/>
  <circle cx="240" cy="180" r="9" fill="#4B9A84"/>
  <circle cx="365" cy="150" r="14" fill="#93CBB9"/>
  <circle cx="470" cy="245" r="11" fill="#1A6A55"/>
  <circle cx="395" cy="332" r="10" fill="#4B9A84"/>
  <circle cx="260" cy="356" r="16" fill="#93CBB9"/>
  <circle cx="150" cy="290" r="13" fill="#1A6A55"/>
  <circle cx="500" cy="120" r="7" fill="#93CBB9"/>
  <circle cx="110" cy="390" r="8" fill="#4B9A84"/>
  <path d="M140 120L240 180L365 150L470 245L395 332L260 356L150 290L140 120Z" stroke="#1A6A55" stroke-width="3" stroke-linecap="round" stroke-linejoin="round"/>
  <path d="M365 150L500 120" stroke="#93CBB9" stroke-width="2.5" stroke-linecap="round"/>
  <path d="M150 290L110 390L260 356" stroke="#93CBB9" stroke-width="2.5" stroke-linecap="round" stroke-linejoin="round"/>
  <path d="M240 180L260 356" stroke="#D6EEE4" stroke-width="2.5" stroke-linecap="round"/>
  <path d="M140 120L150 290" stroke="#D6EEE4" stroke-width="2.5" stroke-linecap="round"/>
  <rect x="72" y="430" width="476" height="48" rx="24" fill="#FFFFFF" fill-opacity="0.72"/>
  <text x="104" y="460" fill="#122116" font-family="Space Grotesk, IBM Plex Sans, Segoe UI, sans-serif" font-size="22" font-weight="700">Home telemetry, routed with care.</text>
  <defs>
    <linearGradient id="bg" x1="36" y1="28" x2="584" y2="512" gradientUnits="userSpaceOnUse">
      <stop stop-color="#F8FCF7"/>
      <stop offset="1" stop-color="#E2F0EA"/>
    </linearGradient>
  </defs>
</svg>
